<?xml version="1.0" encoding="UTF-8"?>
<!DOCTYPE svg PUBLIC "-//W3C//DTD SVG 1.1//EN" "http://www.w3.org/Graphics/SVG/1.1/DTD/svg11.dtd">
<svg xmlns="http://www.w3.org/2000/svg" version="1.1" width="262px" height="106px" style="shape-rendering:geometricPrecision; text-rendering:geometricPrecision; image-rendering:optimizeQuality; fill-rule:evenodd; clip-rule:evenodd" xmlns:xlink="http://www.w3.org/1999/xlink">
<g><path style="opacity:0.993" fill="#fefffe" d="M 49.5,10.5 C 55.2324,10.2832 60.899,10.7832 66.5,12C 71.3398,13.3375 73.6731,16.5041 73.5,21.5C 71.6381,27.7573 69.9714,34.0906 68.5,40.5C 71.6013,52.7411 74.6013,64.7411 77.5,76.5C 76.8059,81.8936 74.9726,86.8936 72,91.5C 68.3724,94.3769 64.2057,95.8769 59.5,96C 49.265,97.0697 39.265,96.0697 29.5,93C 18.3183,84.4575 14.485,73.2908 18,59.5C 19.2028,53.8121 22.3694,49.8121 27.5,47.5C 30.3602,48.1798 32.8602,49.5131 35,51.5C 37.9603,56.5865 40.7936,61.7531 43.5,67C 46.6363,68.0405 49.1363,67.2072 51,64.5C 51.6667,60.8333 51.6667,57.1667 51,53.5C 47.2805,42.0124 43.7805,30.5124 40.5,19C 42.0844,14.58 45.0844,11.7467 49.5,10.5 Z"/></g>
<g><path style="opacity:0.994" fill="#fefffe" d="M 108.5,10.5 C 116.638,10.0756 124.638,10.909 132.5,13C 134.049,14.214 135.215,15.714 136,17.5C 134.914,24.1049 134.247,30.7716 134,37.5C 141.021,51.0615 145.521,65.3949 147.5,80.5C 146.093,93.7251 138.759,98.8918 125.5,96C 121.509,95.5877 118.342,93.7544 116,90.5C 114.483,84.9198 114.149,79.2531 115,73.5C 116.67,64.6471 118.17,55.8137 119.5,47C 119.208,43.9331 117.708,41.7664 115,40.5C 111.156,42.1746 109.323,45.1746 109.5,49.5C 110.937,58.1215 111.937,66.7882 112.5,75.5C 113.29,88.9112 106.956,95.9112 93.5,96.5C 87.1459,96.6861 82.6459,94.0194 80,88.5C 79.2489,83.4285 79.5822,78.4285 81,73.5C 86.0767,61.1035 90.2434,48.4368 93.5,35.5C 93.3078,33.4233 92.8078,31.4233 92,29.5C 85.9428,24.2397 86.1094,19.4064 92.5,15C 97.8742,13.1604 103.207,11.6604 108.5,10.5 Z M 111.5,24.5 C 113.75,24.1814 115.75,24.6814 117.5,26C 115.317,27.6941 112.984,27.8607 110.5,26.5C 110.863,25.8165 111.196,25.1499 111.5,24.5 Z"/></g>
<g><path style="opacity:0.992" fill="#fefffe" d="M 216.5,10.5 C 228.07,9.70577 239.403,10.8724 250.5,14C 256.133,19.4871 255.466,24.1537 248.5,28C 246.5,28.6667 244.5,28.6667 242.5,28C 237.076,23.8436 231.243,23.3436 225,26.5C 224.257,28.4406 224.424,30.2739 225.5,32C 232.094,33.2188 238.761,34.2188 245.5,35C 248.539,38.805 247.872,41.805 243.5,44C 237.79,44.8591 232.29,46.3591 227,48.5C 226.333,50.1667 226.333,51.8333 227,53.5C 233.006,63.0115 237.506,73.1782 240.5,84C 239.849,91.3172 235.849,95.3172 228.5,96C 221.101,96.8481 213.767,96.5147 206.5,95C 201.722,92.2836 199.389,88.117 199.5,82.5C 203.261,66.8588 205.928,51.0255 207.5,35C 206.078,31.3234 204.244,27.8234 202,24.5C 199.822,18.0489 201.989,13.8823 208.5,12C 211.365,11.8171 214.031,11.3171 216.5,10.5 Z"/></g>
<g><path style="opacity:0.994" fill="#fefffe" d="M 159.5,11.5 C 164.511,11.3341 169.511,11.5007 174.5,12C 181.622,12.7769 184.456,16.6102 183,23.5C 175.491,29.0534 173.325,36.22 176.5,45C 179.211,44.9028 181.044,43.4028 182,40.5C 185.667,35.1667 189.333,35.1667 193,40.5C 198.048,51.2991 199.714,62.6324 198,74.5C 198.641,82.5862 196.141,89.4195 190.5,95C 188.645,95.4221 186.811,95.9221 185,96.5C 177.855,95.692 170.688,95.5253 163.5,96C 155.017,93.843 150.517,88.343 150,79.5C 149.333,76.1667 149.333,72.8333 150,69.5C 151.721,58.949 154.221,48.6157 157.5,38.5C 157.333,37.1667 157.167,35.8333 157,34.5C 155,31.5 153,28.5 151,25.5C 150.333,22.5 150.333,19.5 151,16.5C 153.523,14.1733 156.357,12.5066 159.5,11.5 Z"/></g>
</svg>
